# Blender v3.3.2 OBJ File: 'ProjectNorthamtpon.blend'
# www.blender.org
mtllib building12.mtl
o Cube.1393_Cube.1522
v -14.645227 -0.759405 18.926123
v -14.645227 0.114231 18.926123
v -14.726888 -0.759405 18.008017
v -14.726888 0.114231 18.008017
v -14.325896 -0.759405 18.880951
v -14.325896 0.114231 18.880951
v -14.407557 -0.759405 17.962845
v -14.407557 0.114231 17.962845
v -14.645227 -0.315219 18.926123
v -14.726888 -0.315219 18.008017
v -14.407557 -0.315219 17.962845
v -14.325896 -0.315219 18.880951
v -14.726888 -0.460368 18.008017
v -14.407557 -0.460368 17.962845
v -14.325896 -0.461527 18.880951
v -14.645227 -0.461527 18.926123
v -14.726888 -0.547087 18.008017
v -14.407557 -0.547087 17.962845
v -14.325896 -0.547087 18.880951
v -14.645227 -0.547087 18.926123
v -14.645227 -0.192068 18.926123
v -14.726888 -0.192068 18.008017
v -14.407557 -0.192068 17.962845
v -14.325896 -0.192068 18.880951
v -14.645227 -0.083279 18.926123
v -14.726888 -0.083279 18.008017
v -14.407557 -0.083279 17.962845
v -14.325896 -0.083279 18.880951
v -14.608965 -0.759405 17.991337
v -14.608965 0.114231 17.991337
v -14.527305 -0.759405 18.909441
v -14.527305 0.114231 18.909441
v -14.527305 -0.315219 18.909441
v -14.608965 -0.315219 17.991337
v -14.608965 -0.460368 17.991337
v -14.527305 -0.461527 18.909441
v -14.527305 -0.547087 18.909441
v -14.608965 -0.547087 17.991337
v -14.527305 -0.192068 18.909441
v -14.608965 -0.192068 17.991337
v -14.527305 -0.083279 18.909441
v -14.608965 -0.083279 17.991337
v -14.526093 0.114231 17.979612
v -14.444433 -0.759405 18.897718
v -14.526093 -0.315219 17.979612
v -14.526093 -0.460368 17.979612
v -14.526093 -0.547087 17.979612
v -14.526093 -0.192068 17.979612
v -14.526093 -0.083279 17.979612
v -14.526093 -0.759405 17.979612
v -14.444433 0.114231 18.897718
v -14.444433 -0.315219 18.897718
v -14.444433 -0.461527 18.897718
v -14.444433 -0.547087 18.897718
v -14.444433 -0.192068 18.897718
v -14.444433 -0.083279 18.897718
v -14.527645 -0.460368 17.968643
v -14.409108 -0.460368 17.951876
v -14.728439 -0.460368 17.997047
v -14.728439 -0.547087 17.997047
v -14.409108 -0.547087 17.951876
v -14.527645 -0.547087 17.968643
v -14.610517 -0.460368 17.980366
v -14.610517 -0.547087 17.980366
v -14.607928 -0.083279 17.998663
v -14.607928 -0.192068 17.998663
v -14.607928 -0.315219 17.998663
v -14.607928 -0.461527 17.998663
v -14.525057 -0.315219 17.986940
v -14.525057 -0.461527 17.986940
v -14.525057 -0.192068 17.986940
v -14.525057 -0.083279 17.986940
v -14.608889 -0.447628 17.991293
v -14.526018 -0.447628 17.979570
v -14.607853 -0.447805 17.998621
v -14.524981 -0.447805 17.986898
vt 0.568480 0.000000
vt 0.625000 0.000000
vt 0.625000 0.250000
vt 0.568480 0.250000
vt 0.568480 0.407199
vt 0.625000 0.407199
vt 0.625000 0.500000
vt 0.568480 0.500000
vt 0.625000 0.750000
vt 0.568480 0.750000
vt 0.568480 0.907680
vt 0.625000 0.907680
vt 0.625000 1.000000
vt 0.568480 1.000000
vt 0.282199 0.500000
vt 0.375000 0.500000
vt 0.375000 0.750000
vt 0.282199 0.750000
vt 0.782680 0.500000
vt 0.875000 0.500000
vt 0.875000 0.750000
vt 0.782680 0.750000
vt 0.460241 0.907680
vt 0.502108 0.907680
vt 0.502108 1.000000
vt 0.460241 1.000000
vt 0.460241 0.500000
vt 0.502108 0.500000
vt 0.502108 0.750000
vt 0.460241 0.750000
vt 0.460241 0.407199
vt 0.502108 0.407199
vt 0.460241 0.000000
vt 0.502108 0.000000
vt 0.502108 0.250000
vt 0.460241 0.250000
vt 0.435757 0.000000
vt 0.435757 0.250000
vt 0.460241 0.250000
vt 0.435757 0.250000
vt 0.435757 0.500000
vt 0.435757 0.750000
vt 0.435757 0.907680
vt 0.435757 1.000000
vt 0.375000 0.907680
vt 0.375000 1.000000
vt 0.375000 0.407199
vt 0.435757 0.407199
vt 0.375000 0.000000
vt 0.375000 0.250000
vt 0.537349 0.907680
vt 0.537349 1.000000
vt 0.537349 0.500000
vt 0.537349 0.750000
vt 0.537349 0.407199
vt 0.537349 0.000000
vt 0.537349 0.250000
vt 0.568480 0.342320
vt 0.537349 0.342320
vt 0.537349 0.842801
vt 0.568480 0.842801
vt 0.502108 0.342320
vt 0.502108 0.842801
vt 0.435757 0.342320
vt 0.375000 0.342320
vt 0.375000 0.842801
vt 0.435757 0.842801
vt 0.460241 0.842801
vt 0.435757 0.342320
vt 0.460241 0.342320
vt 0.717801 0.500000
vt 0.717801 0.750000
vt 0.125000 0.500000
vt 0.217320 0.500000
vt 0.217320 0.750000
vt 0.125000 0.750000
vt 0.625000 0.842801
vt 0.625000 0.342320
vt 0.460241 0.342320
vt 0.460241 0.407199
vt 0.460241 0.407199
vt 0.460241 0.342320
vt 0.460241 0.407199
vt 0.502108 0.407199
vt 0.435757 0.407199
vt 0.460241 0.500000
vt 0.435757 0.500000
vt 0.537349 0.342320
vt 0.568480 0.342320
vt 0.568480 0.407199
vt 0.537349 0.407199
vt 0.460241 0.342320
vt 0.502108 0.342320
vt 0.460241 0.342320
vt 0.460241 0.407199
vn -0.9961 0.0000 0.0886
vn -0.1401 0.0000 -0.9901
vn 0.9961 0.0000 -0.0886
vn 0.1401 0.0000 0.9901
vn 0.0000 -1.0000 0.0000
vn 0.0000 1.0000 0.0000
vn -0.9901 0.0000 0.1401
vn -0.1400 0.0000 -0.9901
vn 0.1400 0.0000 0.9901
vn -0.1401 -0.0025 -0.9901
vn 0.9901 0.0000 -0.1401
vn 0.0033 0.9997 0.0236
vn 0.1401 0.0023 0.9901
vn -0.9901 0.0061 0.1406
vn 0.9900 -0.0062 -0.1406
usemtl None
s off
f 25/1/1 2/2/1 4/3/1 26/4/1
f 49/5/2 43/6/2 8/7/2 27/8/2
f 27/8/3 8/7/3 6/9/3 28/10/3
f 41/11/4 32/12/4 2/13/4 25/14/4
f 50/15/5 7/16/5 5/17/5 44/18/5
f 30/19/6 4/20/6 2/21/6 32/22/6
f 36/23/4 33/24/4 9/25/4 16/26/4
f 14/27/3 11/28/3 12/29/3 15/30/3
f 46/31/2 45/32/2 11/28/2 14/27/2
f 16/33/1 9/34/1 10/35/1 13/36/1
f 20/37/1 16/33/1 13/36/1 17/38/1
f 17/38/7 13/36/7 59/39/7 60/40/7
f 18/41/3 14/27/3 15/30/3 19/42/3
f 37/43/4 36/23/4 16/26/4 20/44/4
f 31/45/4 37/43/4 20/44/4 1/46/4
f 7/16/3 18/41/3 19/42/3 5/17/3
f 50/47/2 47/48/2 18/41/2 7/16/2
f 1/49/1 20/37/1 17/38/1 3/50/1
f 33/24/4 39/51/4 21/52/4 9/25/4
f 11/28/3 23/53/3 24/54/3 12/29/3
f 45/32/2 48/55/2 23/53/2 11/28/2
f 9/34/1 21/56/1 22/57/1 10/35/1
f 39/51/4 41/11/4 25/14/4 21/52/4
f 23/53/3 27/8/3 28/10/3 24/54/3
f 48/55/2 49/5/2 27/8/2 23/53/2
f 21/56/1 25/1/1 26/4/1 22/57/1
f 22/57/2 26/4/2 42/58/2 40/59/2
f 55/60/4 56/61/4 41/11/4 39/51/4
f 10/35/8 22/57/8 40/59/8 34/62/8
f 52/63/4 55/60/4 39/51/4 33/24/4
f 3/50/8 17/38/8 38/64/8 29/65/8
f 44/66/4 54/67/4 37/43/4 31/45/4
f 54/67/9 53/68/9 36/23/9 37/43/9
f 38/64/5 17/38/5 60/40/5 64/69/5
f 13/36/8 10/35/8 34/62/8 35/70/8
f 53/68/4 52/63/4 33/24/4 36/23/4
f 43/71/6 30/19/6 32/22/6 51/72/6
f 3/73/5 29/74/5 31/75/5 1/76/5
f 56/61/4 51/77/4 32/12/4 41/11/4
f 26/4/2 4/3/2 30/78/2 42/58/2
f 28/10/4 6/9/4 51/77/4 56/61/4
f 8/7/6 43/71/6 51/72/6 6/9/6
f 15/30/4 12/29/4 52/63/4 53/68/4
f 19/42/4 15/30/4 53/68/4 54/67/4
f 5/17/4 19/42/4 54/67/4 44/66/4
f 12/29/4 24/54/4 55/60/4 52/63/4
f 24/54/4 28/10/4 56/61/4 55/60/4
f 46/31/10 35/70/10 73/79/10 74/80/10
f 34/62/2 40/59/2 48/55/2 45/32/2
f 29/65/2 38/64/2 47/48/2 50/47/2
f 35/70/6 46/31/6 57/81/6 63/82/6
f 45/32/7 46/31/7 70/83/7 69/84/7
f 29/74/5 50/15/5 44/18/5 31/75/5
f 42/58/2 30/78/2 43/6/2 49/5/2
f 62/85/2 57/81/2 58/86/2 61/87/2
f 60/40/2 59/39/2 63/82/2 64/69/2
f 64/69/2 63/82/2 57/81/2 62/85/2
f 47/48/5 38/64/5 64/69/5 62/85/5
f 14/27/11 18/41/11 61/87/11 58/86/11
f 13/36/6 35/70/6 63/82/6 59/39/6
f 46/31/6 14/27/6 58/86/6 57/81/6
f 18/41/5 47/48/5 62/85/5 61/87/5
f 66/88/2 65/89/2 72/90/2 71/91/2
f 68/92/2 67/93/2 69/84/2 70/83/2
f 49/5/7 48/55/7 71/91/7 72/90/7
f 40/59/11 42/58/11 65/89/11 66/88/11
f 42/58/5 49/5/5 72/90/5 65/89/5
f 34/62/5 45/32/5 69/84/5 67/93/5
f 48/55/6 40/59/6 66/88/6 71/91/6
f 35/70/11 34/62/11 67/93/11 68/92/11
f 74/80/12 73/79/12 75/94/12 76/95/12
f 68/92/13 70/83/13 76/95/13 75/94/13
f 35/70/14 68/92/14 75/94/14 73/79/14
f 70/83/15 46/31/15 74/80/15 76/95/15
o Window_2X1.020_Cube.1528
v -14.604660 -0.376412 17.998096
v -14.604660 -0.386749 17.998096
v -14.605188 -0.376412 17.993868
v -14.605188 -0.386749 17.993868
v -14.527364 -0.376412 17.988426
v -14.527364 -0.386749 17.988426
v -14.527892 -0.376412 17.984198
v -14.527892 -0.386749 17.984198
v -14.604347 -0.441583 17.997240
v -14.604347 -0.448012 17.997240
v -14.604921 -0.441583 17.992649
v -14.604921 -0.448012 17.992649
v -14.529065 -0.441583 17.987822
v -14.529065 -0.448012 17.987822
v -14.529640 -0.441583 17.983231
v -14.529640 -0.448012 17.983231
v -14.604374 -0.314276 17.997244
v -14.604374 -0.320704 17.997244
v -14.604949 -0.314276 17.992651
v -14.604949 -0.320704 17.992651
v -14.528977 -0.314276 17.987812
v -14.528977 -0.320704 17.987812
v -14.529552 -0.314276 17.983219
v -14.529552 -0.320704 17.983219
v -14.523749 -0.314309 17.987156
v -14.529083 -0.314309 17.987823
v -14.524323 -0.314309 17.982565
v -14.529657 -0.314309 17.983232
v -14.523749 -0.447997 17.987156
v -14.529083 -0.447997 17.987823
v -14.524323 -0.447997 17.982565
v -14.529657 -0.447997 17.983232
v -14.604314 -0.314472 17.997236
v -14.609646 -0.314472 17.997904
v -14.604888 -0.314472 17.992643
v -14.610220 -0.314472 17.993311
v -14.604314 -0.448048 17.997236
v -14.609646 -0.448048 17.997904
v -14.604888 -0.448048 17.992643
v -14.610220 -0.448048 17.993311
vt 0.375000 0.000000
vt 0.375000 0.250000
vt 0.625000 0.250000
vt 0.625000 0.000000
vt 0.375000 0.500000
vt 0.625000 0.500000
vt 0.375000 0.750000
vt 0.625000 0.750000
vt 0.375000 1.000000
vt 0.625000 1.000000
vt 0.125000 0.500000
vt 0.125000 0.750000
vt 0.875000 0.750000
vt 0.875000 0.500000
vt 0.375000 0.000000
vt 0.375000 0.250000
vt 0.625000 0.250000
vt 0.625000 0.000000
vt 0.375000 0.500000
vt 0.625000 0.500000
vt 0.375000 0.750000
vt 0.625000 0.750000
vt 0.375000 1.000000
vt 0.625000 1.000000
vt 0.125000 0.500000
vt 0.125000 0.750000
vt 0.375000 0.000000
vt 0.375000 0.250000
vt 0.625000 0.250000
vt 0.625000 0.000000
vt 0.375000 0.500000
vt 0.625000 0.500000
vt 0.375000 0.750000
vt 0.625000 0.750000
vt 0.375000 1.000000
vt 0.625000 1.000000
vt 0.125000 0.500000
vt 0.125000 0.750000
vt 0.875000 0.750000
vt 0.875000 0.500000
vt 0.375000 0.000000
vt 0.375000 0.250000
vt 0.625000 0.250000
vt 0.625000 0.000000
vt 0.375000 0.500000
vt 0.625000 0.500000
vt 0.375000 0.750000
vt 0.375000 1.000000
vt 0.625000 1.000000
vt 0.625000 0.750000
vt 0.125000 0.500000
vt 0.125000 0.750000
vt 0.875000 0.750000
vt 0.875000 0.500000
vt 0.375000 0.000000
vt 0.375000 0.250000
vt 0.625000 0.250000
vt 0.625000 0.000000
vt 0.375000 0.500000
vt 0.625000 0.500000
vt 0.375000 0.750000
vt 0.375000 1.000000
vt 0.625000 1.000000
vt 0.625000 0.750000
vt 0.125000 0.500000
vt 0.125000 0.750000
vt 0.875000 0.750000
vt 0.875000 0.500000
vn -0.9923 0.0000 0.1240
vn -0.1241 0.0000 -0.9923
vn 0.9923 0.0000 -0.1240
vn 0.1241 0.0000 0.9923
vn 0.0000 1.0000 -0.0000
vn 0.0000 -1.0000 0.0000
vn -0.9923 0.0000 0.1241
vn 0.9922 0.0000 -0.1243
vn -0.9923 0.0000 0.1242
vn 0.9923 0.0000 -0.1241
vn -0.1244 0.0000 -0.9922
vn -0.1242 0.0000 -0.9923
vn 0.1242 0.0000 0.9923
usemtl None
s off
f 77/96/16 79/97/16 80/98/16 78/99/16
f 79/97/17 83/100/17 84/101/17 80/98/17
f 83/100/18 81/102/18 82/103/18 84/101/18
f 81/102/19 77/104/19 78/105/19 82/103/19
f 79/106/20 77/107/20 81/102/20 83/100/20
f 84/101/21 82/103/21 78/108/21 80/109/21
f 85/110/22 87/111/22 88/112/22 86/113/22
f 87/111/17 91/114/17 92/115/17 88/112/17
f 91/114/23 89/116/23 90/117/23 92/115/23
f 89/116/19 85/118/19 86/119/19 90/117/19
f 87/120/20 85/121/20 89/116/20 91/114/20
f 93/122/24 95/123/24 96/124/24 94/125/24
f 95/123/17 99/126/17 100/127/17 96/124/17
f 99/126/25 97/128/25 98/129/25 100/127/25
f 97/128/19 93/130/19 94/131/19 98/129/19
f 95/132/20 93/133/20 97/128/20 99/126/20
f 100/127/21 98/129/21 94/134/21 96/135/21
f 101/136/20 103/137/20 104/138/20 102/139/20
f 103/137/26 107/140/26 108/141/26 104/138/26
f 105/142/19 101/143/19 102/144/19 106/145/19
f 103/146/25 101/147/25 105/142/25 107/140/25
f 108/141/22 106/145/22 102/148/22 104/149/22
f 109/150/20 111/151/20 112/152/20 110/153/20
f 111/151/27 115/154/27 116/155/27 112/152/27
f 113/156/28 109/157/28 110/158/28 114/159/28
f 111/160/18 109/161/18 113/156/18 115/154/18
f 116/155/16 114/159/16 110/162/16 112/163/16
o Window_4x3.001_Cube.1529
v -14.608485 -0.163712 17.995983
v -14.608485 -0.167448 17.995983
v -14.608923 -0.163712 17.991745
v -14.608923 -0.167448 17.991745
v -14.529195 -0.163712 17.987789
v -14.529195 -0.167448 17.987789
v -14.529633 -0.163712 17.983553
v -14.529633 -0.167448 17.983553
v -14.608485 -0.133443 17.995983
v -14.608485 -0.137178 17.995983
v -14.608923 -0.133443 17.991745
v -14.608923 -0.137178 17.991745
v -14.529195 -0.133443 17.987789
v -14.529195 -0.137178 17.987789
v -14.529633 -0.133443 17.983553
v -14.529633 -0.137178 17.983553
v -14.582074 -0.084519 17.994473
v -14.586776 -0.084519 17.994959
v -14.582512 -0.084519 17.990234
v -14.587214 -0.084519 17.990721
v -14.582074 -0.191558 17.994473
v -14.586776 -0.191558 17.994959
v -14.582512 -0.191558 17.990234
v -14.587214 -0.191558 17.990721
v -14.608485 -0.106562 17.995983
v -14.608485 -0.110298 17.995983
v -14.608923 -0.106562 17.991745
v -14.608923 -0.110298 17.991745
v -14.529195 -0.106562 17.987789
v -14.529195 -0.110298 17.987789
v -14.529633 -0.106562 17.983553
v -14.529633 -0.110298 17.983553
v -14.551681 -0.084519 17.991333
v -14.556383 -0.084519 17.991819
v -14.552119 -0.084519 17.987095
v -14.556821 -0.084519 17.987581
v -14.551681 -0.191558 17.991333
v -14.556383 -0.191558 17.991819
v -14.552119 -0.191558 17.987095
v -14.556821 -0.191558 17.987581
v -14.607265 -0.191028 17.995836
v -14.607265 -0.196679 17.995836
v -14.607741 -0.191028 17.991232
v -14.607741 -0.196679 17.991232
v -14.530665 -0.191028 17.987921
v -14.530665 -0.196679 17.987921
v -14.531141 -0.191028 17.983318
v -14.531141 -0.196679 17.983318
v -14.607294 -0.079112 17.995840
v -14.607294 -0.084763 17.995840
v -14.607770 -0.079112 17.991236
v -14.607770 -0.084763 17.991236
v -14.530577 -0.079112 17.987911
v -14.530577 -0.084763 17.987911
v -14.531053 -0.079112 17.983309
v -14.531053 -0.084763 17.983309
v -14.525257 -0.079141 17.987362
v -14.530684 -0.079141 17.987923
v -14.525733 -0.079141 17.982758
v -14.531159 -0.079141 17.983318
v -14.525257 -0.196666 17.987362
v -14.530684 -0.196666 17.987923
v -14.525733 -0.196666 17.982758
v -14.531159 -0.196666 17.983318
v -14.607232 -0.079285 17.995832
v -14.612659 -0.079285 17.996393
v -14.607708 -0.079285 17.991228
v -14.613133 -0.079285 17.991789
v -14.607232 -0.196711 17.995832
v -14.612659 -0.196711 17.996393
v -14.607708 -0.196711 17.991228
v -14.613133 -0.196711 17.991789
v -14.607265 -0.202567 17.995836
v -14.608305 -0.202567 17.985773
v -14.531705 -0.202567 17.977858
v -14.530665 -0.202567 17.987921
v -14.531723 -0.202554 17.977859
v -14.526298 -0.202554 17.977299
v -14.525257 -0.202554 17.987362
v -14.530684 -0.202554 17.987923
v -14.613698 -0.202599 17.986330
v -14.608272 -0.202599 17.985769
v -14.607232 -0.202599 17.995832
v -14.612659 -0.202599 17.996393
v -14.608555 -0.196679 17.983356
v -14.531955 -0.196679 17.975443
v -14.531973 -0.196666 17.975443
v -14.526546 -0.196666 17.974884
v -14.613948 -0.196711 17.983913
v -14.608521 -0.196711 17.983353
v -14.608555 -0.200793 17.983356
v -14.531955 -0.200793 17.975443
v -14.531973 -0.200780 17.975443
v -14.526546 -0.200780 17.974884
v -14.613948 -0.200825 17.983913
v -14.608521 -0.200825 17.983353
vt 0.375000 0.000000
vt 0.375000 0.250000
vt 0.625000 0.250000
vt 0.625000 0.000000
vt 0.375000 0.500000
vt 0.625000 0.500000
vt 0.375000 0.750000
vt 0.625000 0.750000
vt 0.375000 1.000000
vt 0.625000 1.000000
vt 0.125000 0.500000
vt 0.125000 0.750000
vt 0.875000 0.750000
vt 0.875000 0.500000
vt 0.375000 0.000000
vt 0.375000 0.250000
vt 0.625000 0.250000
vt 0.625000 0.000000
vt 0.375000 0.500000
vt 0.625000 0.500000
vt 0.375000 0.750000
vt 0.625000 0.750000
vt 0.375000 1.000000
vt 0.625000 1.000000
vt 0.125000 0.500000
vt 0.125000 0.750000
vt 0.875000 0.750000
vt 0.875000 0.500000
vt 0.375000 0.000000
vt 0.375000 0.250000
vt 0.625000 0.250000
vt 0.625000 0.000000
vt 0.375000 0.500000
vt 0.625000 0.500000
vt 0.375000 0.750000
vt 0.625000 0.750000
vt 0.375000 1.000000
vt 0.625000 1.000000
vt 0.125000 0.500000
vt 0.125000 0.750000
vt 0.875000 0.750000
vt 0.875000 0.500000
vt 0.375000 0.000000
vt 0.375000 0.250000
vt 0.625000 0.250000
vt 0.625000 0.000000
vt 0.375000 0.500000
vt 0.625000 0.500000
vt 0.375000 0.750000
vt 0.625000 0.750000
vt 0.375000 1.000000
vt 0.625000 1.000000
vt 0.125000 0.500000
vt 0.125000 0.750000
vt 0.875000 0.750000
vt 0.875000 0.500000
vt 0.375000 0.000000
vt 0.375000 0.250000
vt 0.625000 0.250000
vt 0.625000 0.000000
vt 0.375000 0.500000
vt 0.625000 0.500000
vt 0.375000 0.750000
vt 0.625000 0.750000
vt 0.375000 1.000000
vt 0.625000 1.000000
vt 0.125000 0.500000
vt 0.125000 0.750000
vt 0.875000 0.750000
vt 0.875000 0.500000
vt 0.375000 0.000000
vt 0.375000 0.250000
vt 0.625000 0.250000
vt 0.625000 0.000000
vt 0.375000 0.500000
vt 0.625000 0.500000
vt 0.375000 0.750000
vt 0.625000 0.750000
vt 0.375000 1.000000
vt 0.625000 1.000000
vt 0.125000 0.500000
vt 0.125000 0.750000
vt 0.625000 0.750000
vt 0.625000 0.750000
vt 0.375000 0.750000
vt 0.375000 0.750000
vt 0.375000 0.000000
vt 0.375000 0.250000
vt 0.625000 0.250000
vt 0.625000 0.000000
vt 0.375000 0.500000
vt 0.625000 0.500000
vt 0.375000 0.750000
vt 0.625000 0.750000
vt 0.375000 1.000000
vt 0.625000 1.000000
vt 0.125000 0.500000
vt 0.125000 0.750000
vt 0.875000 0.750000
vt 0.875000 0.500000
vt 0.375000 0.000000
vt 0.375000 0.250000
vt 0.625000 0.250000
vt 0.625000 0.000000
vt 0.375000 0.500000
vt 0.625000 0.500000
vt 0.375000 0.750000
vt 0.375000 0.750000
vt 0.375000 0.500000
vt 0.375000 1.000000
vt 0.625000 1.000000
vt 0.625000 0.750000
vt 0.125000 0.500000
vt 0.125000 0.750000
vt 0.875000 0.750000
vt 0.875000 0.500000
vt 0.375000 0.000000
vt 0.375000 0.250000
vt 0.625000 0.250000
vt 0.625000 0.000000
vt 0.375000 0.500000
vt 0.625000 0.500000
vt 0.625000 0.500000
vt 0.375000 1.000000
vt 0.625000 1.000000
vt 0.125000 0.500000
vt 0.125000 0.750000
vt 0.875000 0.750000
vt 0.875000 0.500000
vt 0.625000 0.500000
vt 0.625000 0.750000
vt 0.875000 0.750000
vt 0.875000 0.500000
vt 0.625000 0.750000
vt 0.625000 0.500000
vt 0.375000 0.500000
vt 0.625000 1.000000
vt 0.375000 0.500000
vt 0.625000 0.500000
vt 0.625000 0.500000
vt 0.375000 0.500000
vt 0.625000 0.250000
vt 0.625000 0.000000
vt 0.375000 0.500000
vt 0.375000 0.500000
vt 0.625000 0.500000
vt 0.625000 0.500000
vt 0.625000 0.500000
vt 0.625000 0.250000
vt 0.625000 0.250000
vt 0.625000 0.500000
vt 0.875000 0.500000
vn -0.9947 0.0000 0.1027
vn -0.1028 0.0000 -0.9947
vn 0.9947 0.0000 -0.1028
vn 0.1028 0.0000 0.9947
vn 0.0000 1.0000 -0.0000
vn 0.0000 -1.0000 -0.0000
vn -0.1030 -0.0000 -0.9947
vn 0.1030 0.0000 0.9947
vn 0.9947 0.0000 -0.1027
vn -0.9947 -0.0000 0.1028
vn 0.1029 0.0000 0.9947
vn 0.9947 0.0000 -0.1029
vn 0.1027 0.0000 0.9947
vn 0.9947 0.0002 -0.1028
vn 0.1026 0.0000 0.9947
vn -0.1027 0.0000 -0.9947
vn -0.9947 0.0000 0.1026
vn -0.0604 -0.8074 -0.5869
vn 0.9947 -0.0002 -0.1028
vn -0.1029 0.0000 -0.9947
vn -0.1026 0.0000 -0.9947
vn -0.0606 -0.8074 -0.5868
vn -0.0606 -0.8076 -0.5866
vn -0.9947 -0.0003 0.1028
vn -0.9947 -0.0004 0.1028
vn -0.9947 0.0001 0.1029
vn 0.9947 -0.0003 -0.1028
usemtl None
s off
f 117/164/29 119/165/29 120/166/29 118/167/29
f 119/165/30 123/168/30 124/169/30 120/166/30
f 123/168/31 121/170/31 122/171/31 124/169/31
f 121/170/32 117/172/32 118/173/32 122/171/32
f 119/174/33 117/175/33 121/170/33 123/168/33
f 124/169/34 122/171/34 118/176/34 120/177/34
f 125/178/29 127/179/29 128/180/29 126/181/29
f 127/179/30 131/182/30 132/183/30 128/180/30
f 131/182/31 129/184/31 130/185/31 132/183/31
f 129/184/32 125/186/32 126/187/32 130/185/32
f 127/188/33 125/189/33 129/184/33 131/182/33
f 132/183/34 130/185/34 126/190/34 128/191/34
f 133/192/33 135/193/33 136/194/33 134/195/33
f 135/193/35 139/196/35 140/197/35 136/194/35
f 139/196/34 137/198/34 138/199/34 140/197/34
f 137/198/36 133/200/36 134/201/36 138/199/36
f 135/202/37 133/203/37 137/198/37 139/196/37
f 140/197/38 138/199/38 134/204/38 136/205/38
f 141/206/29 143/207/29 144/208/29 142/209/29
f 143/207/30 147/210/30 148/211/30 144/208/30
f 147/210/31 145/212/31 146/213/31 148/211/31
f 145/212/32 141/214/32 142/215/32 146/213/32
f 143/216/33 141/217/33 145/212/33 147/210/33
f 148/211/34 146/213/34 142/218/34 144/219/34
f 149/220/33 151/221/33 152/222/33 150/223/33
f 151/221/35 155/224/35 156/225/35 152/222/35
f 155/224/34 153/226/34 154/227/34 156/225/34
f 153/226/39 149/228/39 150/229/39 154/227/39
f 151/230/40 149/231/40 153/226/40 155/224/40
f 156/225/29 154/227/29 150/232/29 152/233/29
f 157/234/38 159/235/38 160/236/38 158/237/38
f 159/235/30 163/238/30 164/239/30 160/236/30
f 163/238/31 161/240/31 162/241/31 164/239/31
f 161/240/32 157/242/32 158/243/32 162/241/32
f 159/244/33 157/245/33 161/240/33 163/238/33
f 186/246/41 200/247/41 199/248/41 185/249/41
f 165/250/38 167/251/38 168/252/38 166/253/38
f 167/251/30 171/254/30 172/255/30 168/252/30
f 171/254/31 169/256/31 170/257/31 172/255/31
f 169/256/32 165/258/32 166/259/32 170/257/32
f 167/260/33 165/261/33 169/256/33 171/254/33
f 172/255/34 170/257/34 166/262/34 168/263/34
f 173/264/33 175/265/33 176/266/33 174/267/33
f 175/265/35 179/268/35 180/269/35 176/266/35
f 177/270/42 195/271/42 194/272/42 179/268/42
f 177/270/43 173/273/43 174/274/43 178/275/43
f 175/276/31 173/277/31 177/270/31 179/268/31
f 180/269/38 178/275/38 174/278/38 176/279/38
f 181/280/33 183/281/33 184/282/33 182/283/33
f 183/281/44 187/284/44 188/285/44 184/282/44
f 188/285/29 197/286/29 200/247/29 186/246/29
f 185/249/41 181/287/41 182/288/41 186/246/41
f 183/289/31 181/290/31 185/249/31 187/284/31
f 188/285/45 186/246/45 182/291/45 184/292/45
f 191/293/34 192/294/34 189/295/34 190/296/34
f 194/272/34 195/271/34 196/297/34 193/298/34
f 198/299/34 199/248/34 200/247/34 197/286/34
f 158/243/32 189/300/32 192/294/32 162/241/32
f 162/241/42 192/294/42 191/293/42 164/239/42
f 187/284/33 206/301/33 205/302/33 188/285/33
f 180/269/38 193/298/38 196/297/38 178/275/38
f 193/298/46 209/303/46 210/304/46 194/272/46
f 160/236/38 190/305/38 189/306/38 158/237/38
f 185/249/47 199/248/47 198/299/47 187/284/47
f 178/275/41 196/297/41 195/271/41 177/270/41
f 194/272/37 210/304/37 204/307/37 179/268/37
f 206/301/48 212/308/48 211/309/48 205/302/48
f 202/310/30 208/311/30 207/312/30 201/313/30
f 204/307/49 210/304/49 209/303/49 203/314/49
f 190/296/50 207/315/50 208/311/50 191/293/50
f 197/286/51 211/309/51 212/308/51 198/299/51
f 164/239/33 202/310/33 201/313/33 160/236/33
f 180/269/52 203/314/52 209/303/52 193/298/52
f 191/293/31 208/311/31 202/310/31 164/239/31
f 179/268/33 204/307/33 203/314/33 180/269/33
f 160/236/53 201/313/53 207/312/53 190/305/53
f 188/285/54 205/302/54 211/309/54 197/286/54
f 198/299/55 212/308/55 206/301/55 187/284/55
