# Blender v3.3.1 OBJ File: 'market.blend'
# www.blender.org
mtllib market stall frame.mtl
o Cube.050_Cube.043
v 5.155169 -4.640295 2.911148
v 5.155169 0.493420 2.911148
v 5.892630 -4.640295 2.911148
v 5.892630 0.493420 2.911148
v 5.155169 -4.640295 3.299662
v 5.155169 0.493420 3.299662
v 5.892631 -4.640295 3.299662
v 5.892630 0.493420 3.299662
v -5.265306 0.762035 -2.999078
v 5.152145 0.762035 -2.999079
v -5.265307 0.762035 -3.416806
v 5.152144 0.762035 -3.416806
v -5.265306 0.373520 -2.999078
v 5.152145 0.373521 -2.999079
v -5.265307 0.373520 -3.416806
v 5.152144 0.373521 -3.416806
v -5.265306 0.762034 3.290641
v 5.152145 0.762035 3.290641
v -5.265306 0.762034 2.872913
v 5.152145 0.762035 2.872913
v -5.265306 0.373520 3.290641
v 5.152145 0.373521 3.290641
v -5.265306 0.373520 2.872913
v 5.152145 0.373521 2.872913
v -5.870262 2.807718 0.322707
v 5.897186 2.807718 0.322707
v -5.870262 2.807718 0.025783
v 5.897186 2.807718 0.025783
v -5.870262 2.419203 0.322707
v 5.897186 2.419204 0.322707
v -5.870262 2.419203 0.025783
v 5.897186 2.419204 0.025783
v -5.867801 0.762035 -3.419968
v -5.867800 0.762035 3.295323
v -5.130340 0.762035 -3.419968
v -5.130339 0.762035 3.295323
v -5.867801 0.373521 -3.419968
v -5.867800 0.373521 3.295323
v -5.130340 0.373521 -3.419968
v -5.130339 0.373521 3.295323
v 5.151581 0.762035 -3.419967
v 5.151582 0.762035 3.295323
v 5.889042 0.762035 -3.419967
v 5.889043 0.762035 3.295323
v 5.151581 0.373521 -3.419967
v 5.151582 0.373521 3.295323
v 5.889042 0.373521 -3.419967
v 5.889043 0.373521 3.295323
v -5.867801 0.733405 0.031948
v -5.867801 2.702035 0.031948
v -5.130340 0.733405 0.031948
v -5.130340 2.702035 0.031948
v -5.867801 0.733405 0.308107
v -5.867801 2.702035 0.308107
v -5.130340 0.733405 0.308107
v -5.130340 2.702035 0.308107
v 5.159234 0.733405 0.031948
v 5.159234 2.649486 0.031948
v 5.896695 0.733405 0.031947
v 5.896695 2.649486 0.031948
v 5.159234 0.733405 0.308107
v 5.159234 2.649486 0.308107
v 5.896695 0.733405 0.308107
v 5.896695 2.649486 0.308107
v -5.867801 -4.640296 2.880288
v -5.867801 0.493420 2.880288
v -5.130340 -4.640296 2.880288
v -5.130340 0.493420 2.880288
v -5.867801 -4.640296 3.268802
v -5.867800 0.493420 3.268803
v -5.130340 -4.640296 3.268802
v -5.130339 0.493420 3.268803
v -5.867802 -4.640296 -3.415969
v -5.867801 0.493420 -3.415969
v -5.130341 -4.640296 -3.415969
v -5.130340 0.493420 -3.415969
v -5.867801 -4.640296 -3.027455
v -5.867801 0.493420 -3.027455
v -5.130340 -4.640296 -3.027455
v -5.130340 0.493420 -3.027455
v 5.155170 -4.640295 -3.415969
v 5.155169 0.493420 -3.415969
v 5.892631 -4.640295 -3.415969
v 5.892631 0.493420 -3.415969
v 5.155170 -4.640295 -3.027454
v 5.155170 0.493420 -3.027454
v 5.892632 -4.640295 -3.027454
v 5.892631 0.493420 -3.027454
vt 0.375000 0.000000
vt 0.625000 0.000000
vt 0.625000 0.250000
vt 0.375000 0.250000
vt 0.625000 0.500000
vt 0.375000 0.500000
vt 0.625000 0.750000
vt 0.375000 0.750000
vt 0.625000 1.000000
vt 0.375000 1.000000
vt 0.125000 0.500000
vt 0.125000 0.750000
vt 0.875000 0.500000
vt 0.875000 0.750000
vt 0.375000 0.000000
vt 0.625000 0.000000
vt 0.625000 0.250000
vt 0.375000 0.250000
vt 0.625000 0.500000
vt 0.375000 0.500000
vt 0.625000 0.750000
vt 0.375000 0.750000
vt 0.625000 1.000000
vt 0.375000 1.000000
vt 0.125000 0.500000
vt 0.125000 0.750000
vt 0.875000 0.500000
vt 0.875000 0.750000
vt 0.375000 0.000000
vt 0.625000 0.000000
vt 0.625000 0.250000
vt 0.375000 0.250000
vt 0.625000 0.500000
vt 0.375000 0.500000
vt 0.625000 0.750000
vt 0.375000 0.750000
vt 0.625000 1.000000
vt 0.375000 1.000000
vt 0.125000 0.500000
vt 0.125000 0.750000
vt 0.875000 0.500000
vt 0.875000 0.750000
vt 0.375000 0.000000
vt 0.625000 0.000000
vt 0.625000 0.250000
vt 0.375000 0.250000
vt 0.625000 0.500000
vt 0.375000 0.500000
vt 0.625000 0.750000
vt 0.375000 0.750000
vt 0.625000 1.000000
vt 0.375000 1.000000
vt 0.125000 0.500000
vt 0.125000 0.750000
vt 0.875000 0.500000
vt 0.875000 0.750000
vt 0.375000 0.000000
vt 0.625000 0.000000
vt 0.625000 0.250000
vt 0.375000 0.250000
vt 0.625000 0.500000
vt 0.375000 0.500000
vt 0.625000 0.750000
vt 0.375000 0.750000
vt 0.625000 1.000000
vt 0.375000 1.000000
vt 0.125000 0.500000
vt 0.125000 0.750000
vt 0.875000 0.500000
vt 0.875000 0.750000
vt 0.375000 0.000000
vt 0.625000 0.000000
vt 0.625000 0.250000
vt 0.375000 0.250000
vt 0.625000 0.500000
vt 0.375000 0.500000
vt 0.625000 0.750000
vt 0.375000 0.750000
vt 0.625000 1.000000
vt 0.375000 1.000000
vt 0.125000 0.500000
vt 0.125000 0.750000
vt 0.875000 0.500000
vt 0.875000 0.750000
vt 0.375000 0.000000
vt 0.625000 0.000000
vt 0.625000 0.250000
vt 0.375000 0.250000
vt 0.625000 0.500000
vt 0.375000 0.500000
vt 0.625000 0.750000
vt 0.375000 0.750000
vt 0.625000 1.000000
vt 0.375000 1.000000
vt 0.125000 0.500000
vt 0.125000 0.750000
vt 0.875000 0.500000
vt 0.875000 0.750000
vt 0.375000 0.000000
vt 0.625000 0.000000
vt 0.625000 0.250000
vt 0.375000 0.250000
vt 0.625000 0.500000
vt 0.375000 0.500000
vt 0.625000 0.750000
vt 0.375000 0.750000
vt 0.625000 1.000000
vt 0.375000 1.000000
vt 0.125000 0.500000
vt 0.125000 0.750000
vt 0.875000 0.500000
vt 0.875000 0.750000
vt 0.375000 0.000000
vt 0.625000 0.000000
vt 0.625000 0.250000
vt 0.375000 0.250000
vt 0.625000 0.500000
vt 0.375000 0.500000
vt 0.625000 0.750000
vt 0.375000 0.750000
vt 0.625000 1.000000
vt 0.375000 1.000000
vt 0.125000 0.500000
vt 0.125000 0.750000
vt 0.875000 0.500000
vt 0.875000 0.750000
vt 0.375000 0.000000
vt 0.625000 0.000000
vt 0.625000 0.250000
vt 0.375000 0.250000
vt 0.625000 0.500000
vt 0.375000 0.500000
vt 0.625000 0.750000
vt 0.375000 0.750000
vt 0.625000 1.000000
vt 0.375000 1.000000
vt 0.125000 0.500000
vt 0.125000 0.750000
vt 0.875000 0.500000
vt 0.875000 0.750000
vt 0.375000 0.000000
vt 0.625000 0.000000
vt 0.625000 0.250000
vt 0.375000 0.250000
vt 0.625000 0.500000
vt 0.375000 0.500000
vt 0.625000 0.750000
vt 0.375000 0.750000
vt 0.625000 1.000000
vt 0.375000 1.000000
vt 0.125000 0.500000
vt 0.125000 0.750000
vt 0.875000 0.500000
vt 0.875000 0.750000
vn 0.0000 0.0000 -1.0000
vn 1.0000 0.0000 -0.0000
vn 0.0000 0.0000 1.0000
vn -1.0000 -0.0000 0.0000
vn 0.0000 -1.0000 -0.0000
vn 0.0000 1.0000 0.0000
usemtl Material.002
s off
f 1/1/1 2/2/1 4/3/1 3/4/1
f 3/4/2 4/3/2 8/5/2 7/6/2
f 7/6/3 8/5/3 6/7/3 5/8/3
f 5/8/4 6/7/4 2/9/4 1/10/4
f 3/11/5 7/6/5 5/8/5 1/12/5
f 8/5/6 4/13/6 2/14/6 6/7/6
f 9/15/6 10/16/6 12/17/6 11/18/6
f 11/18/1 12/17/1 16/19/1 15/20/1
f 15/20/5 16/19/5 14/21/5 13/22/5
f 13/22/3 14/21/3 10/23/3 9/24/3
f 11/25/4 15/20/4 13/22/4 9/26/4
f 16/19/2 12/27/2 10/28/2 14/21/2
f 17/29/6 18/30/6 20/31/6 19/32/6
f 19/32/1 20/31/1 24/33/1 23/34/1
f 23/34/5 24/33/5 22/35/5 21/36/5
f 21/36/3 22/35/3 18/37/3 17/38/3
f 19/39/4 23/34/4 21/36/4 17/40/4
f 24/33/2 20/41/2 18/42/2 22/35/2
f 25/43/6 26/44/6 28/45/6 27/46/6
f 27/46/1 28/45/1 32/47/1 31/48/1
f 31/48/5 32/47/5 30/49/5 29/50/5
f 29/50/3 30/49/3 26/51/3 25/52/3
f 27/53/4 31/48/4 29/50/4 25/54/4
f 32/47/2 28/55/2 26/56/2 30/49/2
f 33/57/6 34/58/6 36/59/6 35/60/6
f 35/60/2 36/59/2 40/61/2 39/62/2
f 39/62/5 40/61/5 38/63/5 37/64/5
f 37/64/4 38/63/4 34/65/4 33/66/4
f 35/67/1 39/62/1 37/64/1 33/68/1
f 40/61/3 36/69/3 34/70/3 38/63/3
f 41/71/6 42/72/6 44/73/6 43/74/6
f 43/74/2 44/73/2 48/75/2 47/76/2
f 47/76/5 48/75/5 46/77/5 45/78/5
f 45/78/4 46/77/4 42/79/4 41/80/4
f 43/81/1 47/76/1 45/78/1 41/82/1
f 48/75/3 44/83/3 42/84/3 46/77/3
f 49/85/1 50/86/1 52/87/1 51/88/1
f 51/88/2 52/87/2 56/89/2 55/90/2
f 55/90/3 56/89/3 54/91/3 53/92/3
f 53/92/4 54/91/4 50/93/4 49/94/4
f 51/95/5 55/90/5 53/92/5 49/96/5
f 56/89/6 52/97/6 50/98/6 54/91/6
f 57/99/1 58/100/1 60/101/1 59/102/1
f 59/102/2 60/101/2 64/103/2 63/104/2
f 63/104/3 64/103/3 62/105/3 61/106/3
f 61/106/4 62/105/4 58/107/4 57/108/4
f 59/109/5 63/104/5 61/106/5 57/110/5
f 64/103/6 60/111/6 58/112/6 62/105/6
f 65/113/1 66/114/1 68/115/1 67/116/1
f 67/116/2 68/115/2 72/117/2 71/118/2
f 71/118/3 72/117/3 70/119/3 69/120/3
f 69/120/4 70/119/4 66/121/4 65/122/4
f 67/123/5 71/118/5 69/120/5 65/124/5
f 72/117/6 68/125/6 66/126/6 70/119/6
f 73/127/1 74/128/1 76/129/1 75/130/1
f 75/130/2 76/129/2 80/131/2 79/132/2
f 79/132/3 80/131/3 78/133/3 77/134/3
f 77/134/4 78/133/4 74/135/4 73/136/4
f 75/137/5 79/132/5 77/134/5 73/138/5
f 80/131/6 76/139/6 74/140/6 78/133/6
f 81/141/1 82/142/1 84/143/1 83/144/1
f 83/144/2 84/143/2 88/145/2 87/146/2
f 87/146/3 88/145/3 86/147/3 85/148/3
f 85/148/4 86/147/4 82/149/4 81/150/4
f 83/151/5 87/146/5 85/148/5 81/152/5
f 88/145/6 84/153/6 82/154/6 86/147/6
