# Blender v3.3.2 OBJ File: 'ProjectNorthamtpon.blend'
# www.blender.org
mtllib building03.mtl
o Cube.1415_Cube.1587
v 0.305204 0.347118 -3.966701
v 0.305204 0.365335 -3.966701
v 0.304929 0.348926 -3.991301
v 0.304929 0.363527 -3.991301
v 0.323475 0.347118 -3.968771
v 0.323475 0.365335 -3.968771
v 0.319411 0.348926 -3.992942
v 0.319411 0.363527 -3.992942
v 0.303035 0.365335 -3.991086
v 0.303035 0.347118 -3.991086
v 0.321306 0.347118 -3.993156
v 0.321306 0.365335 -3.993156
v 0.305025 0.363527 -3.990404
v 0.305025 0.348926 -3.990404
v 0.319507 0.348926 -3.992045
v 0.319507 0.363527 -3.992045
v 0.301454 0.115723 -3.771932
v 0.301454 0.309018 -3.771932
v 0.279734 0.115723 -4.016130
v 0.279734 0.309018 -4.016130
v 0.401135 0.115723 -3.787656
v 0.401135 0.309018 -3.787656
v 0.379415 0.115723 -4.031854
v 0.379415 0.309018 -4.031854
v 0.301454 0.196123 -3.771932
v 0.279734 0.196123 -4.016130
v 0.379415 0.196123 -4.031854
v 0.401135 0.196123 -3.787656
v 0.279734 0.182305 -4.016130
v 0.379415 0.182305 -4.031854
v 0.401135 0.182305 -3.787656
v 0.301454 0.182305 -3.771932
v 0.301454 0.206577 -3.771932
v 0.279734 0.206577 -4.016130
v 0.379415 0.206577 -4.031854
v 0.401135 0.206577 -3.787656
v 0.301454 0.243639 -3.771932
v 0.279734 0.243639 -4.016130
v 0.379415 0.243639 -4.031854
v 0.401135 0.243639 -3.787656
v 0.301454 0.271718 -3.771932
v 0.279734 0.271718 -4.016130
v 0.379415 0.271718 -4.031854
v 0.401135 0.271718 -3.787656
v 0.301454 0.320935 -3.771932
v 0.279734 0.320935 -4.016130
v 0.379415 0.320935 -4.031854
v 0.401135 0.320935 -3.787656
v 0.299894 0.115723 -4.019713
v 0.299894 0.309018 -4.019713
v 0.321614 0.115723 -3.775515
v 0.321614 0.309018 -3.775515
v 0.321614 0.196123 -3.775515
v 0.299894 0.196123 -4.019713
v 0.299894 0.182305 -4.019713
v 0.321614 0.182305 -3.775515
v 0.321614 0.206577 -3.775515
v 0.299894 0.206577 -4.019713
v 0.321614 0.243639 -3.775515
v 0.299894 0.243639 -4.019713
v 0.321614 0.271718 -3.775515
v 0.299894 0.271718 -4.019713
v 0.299894 0.320935 -4.019713
v 0.321614 0.320935 -3.775515
v 0.320645 0.309018 -4.022292
v 0.342365 0.115723 -3.778094
v 0.320645 0.196123 -4.022292
v 0.320645 0.182305 -4.022292
v 0.320645 0.206577 -4.022292
v 0.320645 0.243639 -4.022292
v 0.320645 0.271718 -4.022292
v 0.320645 0.320935 -4.022292
v 0.320645 0.115723 -4.022292
v 0.342365 0.309018 -3.778094
v 0.342365 0.196123 -3.778094
v 0.342365 0.182305 -3.778094
v 0.342365 0.206577 -3.778094
v 0.342365 0.243639 -3.778094
v 0.342365 0.271718 -3.778094
v 0.342365 0.320935 -3.778094
v 0.339736 0.309018 -4.024665
v 0.361456 0.115723 -3.780467
v 0.339736 0.196123 -4.024665
v 0.339736 0.182305 -4.024665
v 0.339736 0.206577 -4.024665
v 0.339736 0.243639 -4.024665
v 0.339736 0.271718 -4.024665
v 0.339736 0.320935 -4.024665
v 0.339736 0.115723 -4.024665
v 0.361456 0.309018 -3.780467
v 0.361456 0.196123 -3.780467
v 0.361456 0.182305 -3.780467
v 0.361456 0.206577 -3.780467
v 0.361456 0.243639 -3.780467
v 0.361456 0.271718 -3.780467
v 0.361456 0.320935 -3.780467
v 0.360903 0.309018 -4.027296
v 0.382622 0.115723 -3.783098
v 0.360903 0.196123 -4.027296
v 0.360903 0.182305 -4.027296
v 0.360903 0.206577 -4.027296
v 0.360903 0.243639 -4.027296
v 0.360903 0.271718 -4.027296
v 0.360903 0.320935 -4.027296
v 0.360903 0.115723 -4.027296
v 0.382622 0.309018 -3.783098
v 0.382622 0.196123 -3.783098
v 0.382622 0.182305 -3.783098
v 0.382622 0.206577 -3.783098
v 0.382622 0.243639 -3.783098
v 0.382622 0.271718 -3.783098
v 0.382622 0.320935 -3.783098
v 0.300218 0.243639 -4.017106
v 0.300218 0.206577 -4.017106
v 0.300218 0.309018 -4.017106
v 0.300218 0.271718 -4.017106
v 0.320969 0.309018 -4.019685
v 0.320969 0.206577 -4.019685
v 0.320969 0.243639 -4.019685
v 0.320969 0.271718 -4.019685
v 0.340060 0.243639 -4.022058
v 0.340060 0.206577 -4.022058
v 0.340060 0.309018 -4.022058
v 0.340060 0.271718 -4.022058
v 0.361227 0.309018 -4.024689
v 0.361227 0.206577 -4.024689
v 0.361227 0.243639 -4.024689
v 0.361227 0.271718 -4.024689
v 0.360141 0.196123 -4.033425
v 0.378653 0.196123 -4.037983
v 0.278972 0.196123 -4.022259
v 0.278972 0.182305 -4.022259
v 0.378653 0.182305 -4.037983
v 0.360141 0.182305 -4.033425
v 0.299132 0.196123 -4.025842
v 0.299132 0.182305 -4.025842
v 0.319883 0.196123 -4.028421
v 0.319883 0.182305 -4.028421
v 0.338974 0.196123 -4.030795
v 0.338974 0.182305 -4.030795
v 0.290594 0.115723 -3.894031
v 0.290594 0.309018 -3.894031
v 0.390275 0.115723 -3.909755
v 0.390275 0.309018 -3.909755
v 0.390275 0.196123 -3.909755
v 0.290594 0.196123 -3.894031
v 0.290594 0.182305 -3.894031
v 0.390275 0.182305 -3.909755
v 0.390275 0.206577 -3.909755
v 0.290594 0.206577 -3.894031
v 0.390275 0.243639 -3.909755
v 0.290594 0.243639 -3.894031
v 0.390275 0.271718 -3.909755
v 0.290594 0.271718 -3.894031
v 0.286889 0.393872 -3.935684
v 0.386570 0.393872 -3.951408
v 0.307049 0.393872 -3.939267
v 0.310754 0.115723 -3.897614
v 0.327800 0.393872 -3.941846
v 0.331505 0.115723 -3.900193
v 0.346891 0.393872 -3.944219
v 0.350596 0.115723 -3.902566
v 0.368058 0.393872 -3.946850
v 0.371762 0.115723 -3.905197
vt 0.375000 0.000000
vt 0.625000 0.000000
vt 0.625000 0.250000
vt 0.375000 0.250000
vt 0.600192 0.474078
vt 0.399808 0.474078
vt 0.399808 0.474078
vt 0.600192 0.474078
vt 0.375000 0.500000
vt 0.625000 0.500000
vt 0.625000 0.750000
vt 0.375000 0.750000
vt 0.625000 1.000000
vt 0.375000 1.000000
vt 0.125000 0.500000
vt 0.125000 0.750000
vt 0.875000 0.500000
vt 0.875000 0.750000
vt 0.600192 0.275922
vt 0.399808 0.275922
vt 0.399808 0.275922
vt 0.600192 0.275922
vt 0.576758 0.125000
vt 0.625000 0.125000
vt 0.625000 0.250000
vt 0.576758 0.250000
vt 0.576758 0.471217
vt 0.625000 0.471217
vt 0.625000 0.500000
vt 0.576758 0.500000
vt 0.576758 0.625000
vt 0.625000 0.625000
vt 0.625000 0.750000
vt 0.576758 0.750000
vt 0.576758 0.899671
vt 0.625000 0.899671
vt 0.625000 1.000000
vt 0.576758 1.000000
vt 0.346217 0.625000
vt 0.375000 0.625000
vt 0.375000 0.750000
vt 0.346217 0.750000
vt 0.625000 0.500000
vt 0.625000 0.625000
vt 0.461114 0.899671
vt 0.478987 0.899671
vt 0.478987 1.000000
vt 0.461114 1.000000
vt 0.461114 0.625000
vt 0.478987 0.625000
vt 0.478987 0.750000
vt 0.461114 0.750000
vt 0.478987 0.350329
vt 0.478987 0.391447
vt 0.478987 0.391447
vt 0.478987 0.350329
vt 0.461114 0.125000
vt 0.478987 0.125000
vt 0.478987 0.250000
vt 0.461114 0.250000
vt 0.375000 0.125000
vt 0.375000 0.250000
vt 0.375000 0.471217
vt 0.461114 0.471217
vt 0.461114 0.500000
vt 0.375000 0.500000
vt 0.375000 0.899671
vt 0.375000 1.000000
vt 0.492507 0.899671
vt 0.492507 1.000000
vt 0.492507 0.625000
vt 0.492507 0.750000
vt 0.478987 0.471217
vt 0.492507 0.471217
vt 0.492507 0.500000
vt 0.478987 0.500000
vt 0.492507 0.125000
vt 0.492507 0.250000
vt 0.540441 0.899671
vt 0.540441 1.000000
vt 0.540441 0.625000
vt 0.540441 0.750000
vt 0.540441 0.471217
vt 0.540441 0.500000
vt 0.540441 0.125000
vt 0.540441 0.250000
vt 0.774671 0.625000
vt 0.875000 0.625000
vt 0.875000 0.750000
vt 0.774671 0.750000
vt 0.625000 0.000000
vt 0.625000 0.000000
vt 0.625000 0.125000
vt 0.625000 0.778783
vt 0.625000 0.750000
vt 0.625000 0.778783
vt 0.625000 0.350329
vt 0.625000 0.250000
vt 0.625000 0.350329
vt 0.625000 0.391447
vt 0.625000 0.391447
vt 0.625000 0.899671
vt 0.625000 1.000000
vt 0.733553 0.625000
vt 0.733553 0.750000
vt 0.576758 0.350329
vt 0.540441 0.350329
vt 0.540441 0.858553
vt 0.576758 0.858553
vt 0.492507 0.350329
vt 0.492507 0.858553
vt 0.478987 0.858553
vt 0.375000 0.858553
vt 0.461114 0.858553
vt 0.461114 0.350329
vt 0.375000 0.350329
vt 0.478987 0.429276
vt 0.478987 0.471217
vt 0.478987 0.429276
vt 0.125000 0.625000
vt 0.225329 0.625000
vt 0.225329 0.750000
vt 0.125000 0.750000
vt 0.625000 0.858553
vt 0.576758 0.820724
vt 0.625000 0.820724
vt 0.461114 0.820724
vt 0.478987 0.820724
vt 0.375000 0.820724
vt 0.492507 0.820724
vt 0.540441 0.820724
vt 0.695724 0.625000
vt 0.695724 0.750000
vt 0.625000 0.429276
vt 0.625000 0.429276
vt 0.625000 0.858553
vt 0.576758 0.391447
vt 0.540441 0.391447
vt 0.576758 0.471217
vt 0.625000 0.471217
vt 0.492507 0.391447
vt 0.461114 0.391447
vt 0.375000 0.391447
vt 0.461114 0.250000
vt 0.461114 0.350329
vt 0.266447 0.625000
vt 0.266447 0.750000
vt 0.576758 0.350329
vt 0.576758 0.391447
vt 0.625000 0.471217
vt 0.653783 0.625000
vt 0.653783 0.750000
vt 0.540441 0.778783
vt 0.576758 0.778783
vt 0.492507 0.778783
vt 0.478987 0.778783
vt 0.375000 0.778783
vt 0.461114 0.778783
vt 0.625000 0.820724
vt 0.576758 0.429276
vt 0.540441 0.429276
vt 0.492507 0.429276
vt 0.461114 0.429276
vt 0.375000 0.429276
vt 0.461114 0.471217
vt 0.461114 0.500000
vt 0.304276 0.625000
vt 0.304276 0.750000
vt 0.540441 0.391447
vt 0.540441 0.350329
vt 0.461114 0.391447
vt 0.461114 0.429276
vt 0.625000 0.429276
vt 0.492507 0.350329
vt 0.492507 0.391447
vt 0.625000 0.350329
vt 0.625000 0.391447
vt 0.492507 0.429276
vt 0.540441 0.429276
vt 0.540441 0.471217
vt 0.492507 0.471217
vt 0.576758 0.429276
vt 0.478987 0.500000
vt 0.478987 0.250000
vt 0.304276 0.500000
vt 0.346217 0.500000
vt 0.653783 0.500000
vt 0.266447 0.500000
vt 0.695724 0.500000
vt 0.225329 0.500000
vt 0.733553 0.500000
vt 0.125000 0.500000
vt 0.774671 0.500000
vt 0.875000 0.500000
vt 0.540441 0.000000
vt 0.576758 0.000000
vt 0.492507 0.000000
vt 0.478987 0.000000
vt 0.375000 0.000000
vt 0.461114 0.000000
vn -0.9961 0.0000 0.0886
vn -0.9943 0.0000 0.1063
vn 0.9961 0.0000 -0.0886
vn 0.1126 0.0000 0.9936
vn 0.0000 -1.0000 0.0000
vn 0.0000 1.0000 0.0000
vn -0.1126 0.0000 -0.9936
vn -0.1126 -0.0001 -0.9936
vn -0.1126 0.0001 -0.9936
vn -0.1124 0.0000 -0.9937
vn 0.9943 0.0000 -0.1063
vn -0.2390 0.0000 -0.9710
vn 0.1750 0.0000 0.9846
vn -0.2391 0.0000 -0.9710
vn 0.0712 0.9135 0.4006
vn 0.2391 0.0000 0.9710
vn -0.1750 0.0000 -0.9846
vn -0.1233 0.0000 -0.9924
vn 0.0501 0.9140 0.4026
vn 0.1233 0.0000 0.9924
vn 0.1234 0.0000 0.9924
vn -0.1234 0.0000 -0.9924
vn -0.9924 0.0000 0.1233
vn 0.0500 0.9140 0.4026
vn 0.2390 0.0000 0.9710
vn 0.0979 0.9123 0.3976
vn 0.9924 0.0000 -0.1234
vn -0.9924 0.0000 0.1234
vn 0.9924 0.0000 -0.1233
vn -0.1613 0.7382 -0.6550
vn -0.0827 0.7419 -0.6653
vn -0.1175 0.7409 -0.6613
usemtl None
s off
f 1/1/1 2/2/1 9/3/1 10/4/1
f 8/5/2 7/6/2 15/7/2 16/8/2
f 11/9/3 12/10/3 6/11/3 5/12/3
f 5/12/4 6/11/4 2/13/4 1/14/4
f 10/15/5 11/9/5 5/12/5 1/16/5
f 12/10/6 9/17/6 2/18/6 6/11/6
f 4/19/7 3/20/7 10/4/7 9/3/7
f 3/20/8 7/6/8 11/9/8 10/4/8
f 8/5/9 4/19/9 9/3/9 12/10/9
f 7/6/10 8/5/10 12/10/10 11/9/10
f 14/21/7 13/22/7 16/8/7 15/7/7
f 7/6/6 3/20/6 14/21/6 15/7/6
f 4/19/5 8/5/5 16/8/5 13/22/5
f 3/20/11 4/19/11 13/22/11 14/21/11
f 154/23/1 142/24/1 20/25/1 42/26/1
f 103/27/12 97/28/12 24/29/12 43/30/12
f 153/31/3 144/32/3 22/33/3 44/34/3
f 61/35/13 52/36/13 18/37/13 41/38/13
f 164/39/5 143/40/5 21/41/5 98/42/5
f 144/32/3 24/29/3 47/43/3 156/44/3
f 56/45/13 53/46/13 25/47/13 32/48/13
f 148/49/3 145/50/3 28/51/3 31/52/3
f 54/53/6 67/54/6 137/55/6 135/56/6
f 147/57/1 146/58/1 26/59/1 29/60/1
f 141/61/1 147/57/1 29/60/1 19/62/1
f 105/63/14 100/64/14 30/65/14 23/66/14
f 143/40/3 148/49/3 31/52/3 21/41/3
f 51/67/13 56/45/13 32/48/13 17/68/13
f 53/46/13 57/69/13 33/70/13 25/47/13
f 145/50/3 149/71/3 36/72/3 28/51/3
f 99/73/12 101/74/12 35/75/12 27/76/12
f 146/58/1 150/77/1 34/78/1 26/59/1
f 57/69/13 59/79/13 37/80/13 33/70/13
f 149/71/3 151/81/3 40/82/3 36/72/3
f 101/74/14 102/83/14 39/84/14 35/75/14
f 150/77/1 152/85/1 38/86/1 34/78/1
f 59/79/13 61/35/13 41/38/13 37/80/13
f 151/81/3 153/31/3 44/34/3 40/82/3
f 102/83/14 103/27/14 43/30/14 39/84/14
f 152/85/1 154/23/1 42/26/1 38/86/1
f 157/87/15 155/88/15 45/89/15 64/90/15
f 142/24/1 18/91/1 45/92/1 155/93/1
f 106/94/16 22/33/16 48/95/16 112/96/16
f 50/97/17 20/25/17 46/98/17 63/99/17
f 65/100/18 50/97/18 63/99/18 72/101/18
f 18/37/13 52/36/13 64/102/13 45/103/13
f 159/104/19 157/87/19 64/90/19 80/105/19
f 38/86/17 42/26/17 62/106/17 60/107/17
f 78/108/20 79/109/20 61/35/20 59/79/20
f 34/78/17 38/86/17 60/107/17 58/110/17
f 77/111/20 78/108/20 59/79/20 57/69/20
f 26/59/17 34/78/17 58/110/17 54/53/17
f 75/112/21 77/111/21 57/69/21 53/46/21
f 66/113/20 76/114/20 56/45/20 51/67/20
f 19/62/17 29/60/17 55/115/17 49/116/17
f 83/117/6 99/73/6 129/118/6 139/119/6
f 76/114/20 75/112/20 53/46/20 56/45/20
f 141/120/5 158/121/5 51/122/5 17/123/5
f 79/109/20 74/124/20 52/36/20 61/35/20
f 42/26/17 20/25/17 50/97/17 62/106/17
f 95/125/20 90/126/20 74/124/20 79/109/20
f 92/127/20 91/128/20 75/112/20 76/114/20
f 82/129/20 92/127/20 76/114/20 66/113/20
f 91/128/20 93/130/20 77/111/20 75/112/20
f 93/130/20 94/131/20 78/108/20 77/111/20
f 94/131/20 95/125/20 79/109/20 78/108/20
f 161/132/19 159/104/19 80/105/19 96/133/19
f 81/134/22 65/100/22 72/101/22 88/135/22
f 52/36/20 74/124/20 80/136/20 64/102/20
f 60/107/18 62/106/18 71/137/18 70/138/18
f 97/28/23 103/27/23 128/139/23 125/140/23
f 54/53/22 58/110/22 69/141/22 67/54/22
f 49/116/18 55/115/18 68/142/18 73/143/18
f 55/115/5 29/60/5 132/144/5 136/145/5
f 158/121/5 160/146/5 66/147/5 51/122/5
f 71/137/6 62/106/6 116/148/6 120/149/6
f 97/28/18 81/134/18 88/135/18 104/150/18
f 163/151/24 161/132/24 96/133/24 112/152/24
f 110/153/20 111/154/20 95/125/20 94/131/20
f 109/155/21 110/153/21 94/131/21 93/130/21
f 107/156/21 109/155/21 93/130/21 91/128/21
f 98/157/21 108/158/21 92/127/21 82/129/21
f 108/158/21 107/156/21 91/128/21 92/127/21
f 111/154/21 106/94/21 90/126/21 95/125/21
f 74/124/21 90/126/21 96/159/21 80/136/21
f 70/138/22 71/137/22 87/160/22 86/161/22
f 69/141/18 70/138/18 86/161/18 85/162/18
f 67/54/22 69/141/22 85/162/22 83/117/22
f 73/143/22 68/142/22 84/163/22 89/164/22
f 30/65/5 100/64/5 134/165/5 133/166/5
f 160/146/5 162/167/5 82/168/5 66/147/5
f 71/137/22 65/100/22 81/134/22 87/160/22
f 44/34/25 22/33/25 106/94/25 111/154/25
f 31/52/16 28/51/16 107/156/16 108/158/16
f 21/41/16 31/52/16 108/158/16 98/157/16
f 28/51/25 36/72/25 109/155/25 107/156/25
f 36/72/16 40/82/16 110/153/16 109/155/16
f 40/82/16 44/34/16 111/154/16 110/153/16
f 156/44/26 163/151/26 112/152/26 48/95/26
f 24/29/14 97/28/14 104/150/14 47/43/14
f 90/126/20 106/94/20 112/96/20 96/159/20
f 86/161/18 87/160/18 103/27/18 102/83/18
f 60/107/5 70/138/5 119/169/5 113/170/5
f 83/117/18 85/162/18 101/74/18 99/73/18
f 89/164/18 84/163/18 100/64/18 105/63/18
f 84/163/5 68/142/5 138/171/5 140/172/5
f 162/167/5 164/39/5 98/42/5 82/168/5
f 81/134/5 97/28/5 125/140/5 123/173/5
f 114/174/18 113/170/18 119/169/18 118/175/18
f 116/148/18 115/176/18 117/177/18 120/149/18
f 122/178/18 121/179/18 127/180/18 126/181/18
f 124/182/18 123/173/18 125/140/18 128/139/18
f 85/162/27 86/161/27 121/179/27 122/178/27
f 62/106/27 50/97/27 115/176/27 116/148/27
f 50/97/5 65/100/5 117/177/5 115/176/5
f 102/83/28 101/74/28 126/181/28 127/180/28
f 65/100/23 71/137/23 120/149/23 117/177/23
f 101/74/6 85/162/6 122/178/6 126/181/6
f 86/161/5 102/83/5 127/180/5 121/179/5
f 103/27/6 87/160/6 124/182/6 128/139/6
f 58/110/29 60/107/29 113/170/29 114/174/29
f 70/138/23 69/141/23 118/175/23 119/169/23
f 87/160/29 81/134/29 123/173/29 124/182/29
f 69/141/6 58/110/6 114/174/6 118/175/6
f 134/165/14 129/118/14 130/183/14 133/166/14
f 132/144/17 131/184/17 135/56/17 136/145/17
f 136/145/18 135/56/18 137/55/18 138/171/18
f 138/171/22 137/55/22 139/119/22 140/172/22
f 140/172/18 139/119/18 129/118/18 134/165/18
f 100/64/5 84/163/5 140/172/5 134/165/5
f 29/60/23 26/59/23 131/184/23 132/144/23
f 68/142/5 55/115/5 136/145/5 138/171/5
f 67/54/6 83/117/6 139/119/6 137/55/6
f 26/59/6 54/53/6 135/56/6 131/184/6
f 27/76/29 30/65/29 133/166/29 130/183/29
f 99/73/6 27/76/6 130/183/6 129/118/6
f 89/185/5 105/186/5 164/39/5 162/167/5
f 47/43/30 104/187/30 163/151/30 156/44/30
f 73/188/5 89/185/5 162/167/5 160/146/5
f 104/187/31 88/189/31 161/132/31 163/151/31
f 49/190/5 73/188/5 160/146/5 158/121/5
f 88/189/31 72/191/31 159/104/31 161/132/31
f 19/192/5 49/190/5 158/121/5 141/120/5
f 72/191/31 63/193/31 157/87/31 159/104/31
f 20/25/1 142/24/1 155/93/1 46/98/1
f 63/193/32 46/194/32 155/88/32 157/87/32
f 37/195/1 41/196/1 154/23/1 152/85/1
f 39/84/3 43/30/3 153/31/3 151/81/3
f 33/197/1 37/195/1 152/85/1 150/77/1
f 35/75/3 39/84/3 151/81/3 149/71/3
f 25/198/1 33/197/1 150/77/1 146/58/1
f 27/76/3 35/75/3 149/71/3 145/50/3
f 23/66/3 30/65/3 148/49/3 143/40/3
f 17/199/1 32/200/1 147/57/1 141/61/1
f 32/200/1 25/198/1 146/58/1 147/57/1
f 30/65/3 27/76/3 145/50/3 148/49/3
f 22/33/3 144/32/3 156/44/3 48/95/3
f 105/186/5 23/66/5 143/40/5 164/39/5
f 43/30/3 24/29/3 144/32/3 153/31/3
f 41/196/1 18/91/1 142/24/1 154/23/1
